<svg id="Layer_1" data-name="Layer 1" xmlns="http://www.w3.org/2000/svg" viewBox="0 0 821.77 560"><title>blackJames</title><rect width="821.77" height="560" fill="#fff"/><path d="M177.63,281.11q13.94-30,25.43-52.6t22.37-42.19q-13.6,12.5-28.13,27.92t-16.59,15.43c-.7,0-1.35-.45-2-1.38a5.52,5.52,0,0,1-.94-3.16q0-6.07,19.75-26.09T246,157.81c1.25-.17,2.55-.31,3.94-.4s2.89-.15,4.55-.16a33.28,33.28,0,0,1,12.43,1.94c3.32,1.34,5,2.84,5,4.53q0,.76-21.38,34T209.66,269q27.47-13.6,72.59-58a2.87,2.87,0,0,1,2.49,1.13,6.77,6.77,0,0,1,1.05,3.41q0,7.59-25.11,30t-59,40.42Q164.76,364.53,137,400.3T85.81,436.23q-12.21.07-18.45-6.72T61.05,409q-.12-28.64,31-63T177.63,281.11Zm-8.81,20.32q-43.35,24.09-70.23,55.69T71.83,412.51c0,4.56,1.15,8,3.36,10.36s5.47,3.51,9.75,3.48q15.11-.09,35.56-30.5T168.82,301.43Zm119.3-211q0-7.34,4.19-11.93a15.74,15.74,0,0,1,22.15-.15q4.26,4.53,4.29,11.88c0,5.06-1.37,9.13-4.18,12.18a15.72,15.72,0,0,1-22.15.15Q288.15,98,288.12,90.41Z" transform="translate(0 -3.13)" stroke="#000" stroke-miterlimit="10" stroke-width="5"/><path d="M213.13,393.32q-9.12,9.3-16.88,14T182.37,412a11.56,11.56,0,0,1-10-4.8q-3.54-4.85-3.59-13.77a43.53,43.53,0,0,1,4.78-20.09q4.83-9.58,15-18.73a112.61,112.61,0,0,1,28.16-19.36q15.09-7.22,26.7-7.28,6.57,0,9.64,2.45c2.05,1.66,3.24,4.43,3.56,8.29a46.2,46.2,0,0,1,4.94-5,52.2,52.2,0,0,1,6.32-4.65q1.21,0,3.51-.18t3.36-.18a24.14,24.14,0,0,1,7.65.82,3,3,0,0,1,2.3,2.89c0,1.25-2.32,4-7,8.34q-3.8,3.48-6.08,5.52-20.37,20-31.91,34.11t-11.51,19.11a3.77,3.77,0,0,0,.86,2.81,4.65,4.65,0,0,0,3.14.77q6.72,0,19.82-6.77a173.55,173.55,0,0,0,27.72-18.26q6.07-4.72,13.08-11t8.37-6.32a2.25,2.25,0,0,1,1.76.78,3,3,0,0,1,.7,2q0,2.82-17,17.18l-.76.63a182.65,182.65,0,0,1-32.36,22q-15.47,8-25.24,8.06-7,0-11.25-3.93t-4.26-10.72a19.71,19.71,0,0,1,.06-2.11A10.71,10.71,0,0,1,213.13,393.32Zm-1.26-6.57,34.94-38.59a21.25,21.25,0,0,0,3.11-4.41,8.89,8.89,0,0,0,1.12-4.08,3.17,3.17,0,0,0-1.08-2.5,4.31,4.31,0,0,0-2.91-.93q-5.19,0-13.65,4.55A93,93,0,0,0,216.12,353a140.69,140.69,0,0,0-23.85,26q-9.39,13.53-9.36,19.8a4.79,4.79,0,0,0,1.32,3.52,4.36,4.36,0,0,0,3.29,1.31q4.13,0,10.75-4.52A75,75,0,0,0,211.87,386.75Z" transform="translate(0 -3.13)" stroke="#000" stroke-miterlimit="10" stroke-width="5"/><path d="M302.15,409.75a16.83,16.83,0,0,1-3.51.73q-2.13.24-7.18.27a32.39,32.39,0,0,1-6.95-.43q-1.75-.46-1.77-1.71,0-2.82,13.36-15.59,9-8.67,14.6-14.5l3.64-3.47Q345,344.17,345,339.61a4.46,4.46,0,0,0-.62-2,1.35,1.35,0,0,0-1.08-.62q-4.27,0-10.9,4.29T313.78,356.4c-2,1.79-4.46,4.05-7.29,6.78q-5.62,5.52-7.46,5.53a2.72,2.72,0,0,1-1.92-.78,2.49,2.49,0,0,1-.85-1.87q0-2.19,11.09-12.44c1.42-1.27,2.48-2.26,3.19-3q13.69-12.3,22.83-17.76t15.86-5.49a9,9,0,0,1,7.51,3.25q2.61,3.27,2.65,9.85c0,.74-.05,1.63-.14,2.67s-.24,2.56-.44,4.55q20.71-13.44,28.26-17t12.58-3.6a7.35,7.35,0,0,1,6.44,3.34q2.31,3.36,2.35,9.78c0,.84,0,1.72-.07,2.66s-.16,2.46-.35,4.55q18.57-12.17,27-16.37t13.35-4.23a11.6,11.6,0,0,1,8.49,3,11.19,11.19,0,0,1,3.18,8.37q.06,9.56-19.09,28.94l-.46.47q-3.34,3.16-9.12,8.83-18.54,18-18.52,21.73a3.42,3.42,0,0,0,1.39,2.81,5.67,5.67,0,0,0,3.67,1.08q6.72,0,19.75-6.77A174.69,174.69,0,0,0,465.33,377q6.23-4.72,13.23-11t8.22-6.32a2.11,2.11,0,0,1,1.68.7,3.13,3.13,0,0,1,.62,2.11q0,2.82-16.86,17l-.92.79a196.45,196.45,0,0,1-32.12,21.81q-15.54,8.24-23.79,8.28a15.67,15.67,0,0,1-11-3.85A13.2,13.2,0,0,1,400,396.35q0-7.52,5.49-16.48a85.38,85.38,0,0,1,15.87-18.27q3.35-3,9.12-8.05,14.3-12.3,14.29-14.49a2.28,2.28,0,0,0-1.16-1.88,4.66,4.66,0,0,0-2.68-.77q-8.55,0-33,19.93t-56,53.13a20.48,20.48,0,0,1-3.67.73q-2.13.24-7,.27a34.82,34.82,0,0,1-7.19-.43c-1.22-.3-1.84-.87-1.84-1.71q0-2.82,13.21-15.59,5.16-5,8.21-8,21.74-21.27,31.38-31.75t9.63-12.67a3.48,3.48,0,0,0-1.08-2.5,3.19,3.19,0,0,0-2.3-1.09q-8.4,0-33.5,20.33T302.15,409.75Z" transform="translate(0 -3.13)" stroke="#000" stroke-miterlimit="10" stroke-width="5"/><path d="M494.68,380.78a32.27,32.27,0,0,0-2,5.81,22.29,22.29,0,0,0-.66,5,10,10,0,0,0,3.18,7.81c2.09,1.87,5,2.8,8.65,2.78q9.62-.06,23.49-7.42T557,374q4.11-3.62,10-9.22t7.3-5.61a2.3,2.3,0,0,1,1.84.7A3.83,3.83,0,0,1,577,362c0,1.15-1.36,3.17-4.1,6.06s-7.5,7.33-14.29,13.32a140.78,140.78,0,0,1-30.45,20.94q-15.24,7.53-26.7,7.59-11,.06-17.61-6.8t-6.67-18.77q-.06-10.65,6.46-21.27t19-20.24a102.43,102.43,0,0,1,20.56-12.34A46.15,46.15,0,0,1,541,326.29q7.32,0,10.4,2.37c2,1.61,3.08,4.4,3.1,8.37q.06,12.08-17.13,25.17T494.68,380.78Zm4.38-9.43q20.61-4.5,34.61-14.3t14-18.26c0-2-.37-3.39-1.09-4.22a4.64,4.64,0,0,0-3.67-1.24q-7.65,0-18.75,9.75T499.06,371.35Z" transform="translate(0 -3.13)" stroke="#000" stroke-miterlimit="10" stroke-width="5"/><path d="M573.29,380.1a17.34,17.34,0,0,0,7.57,11.28q5.83,3.74,16.35,3.66,28.13-.21,43.58-40.56T658.47,234a332.76,332.76,0,0,0-50.09,46.65q-23.19,26.44-25.74,26.45a4,4,0,0,1-3.27-1.49,5.6,5.6,0,0,1-1.3-3.76q0-7.94,23.16-32.67t60.28-55.6q1.89-21.93,9.23-35.4t16.7-13.54a8.34,8.34,0,0,1,7.26,3.92q2.71,3.94,2.75,10.75a44,44,0,0,1-6.16,22,53.46,53.46,0,0,1-17,18.26,104.49,104.49,0,0,1,8.92,27.52,190.66,190.66,0,0,1,3,34.36q.13,31-7.16,54.47t-21.43,37.94q36.29-19.54,67.1-53.39t31.4-33.86a3.81,3.81,0,0,1,3.27,1.87,8.59,8.59,0,0,1,1.3,4.9q0,5.67-12.27,21.25T716.62,347.7q-31.12,29.69-61.88,45.79t-55.19,16.27Q581.37,409.9,570,399t-11.49-28.25q0-14,6.44-22.91t16.16-9a13.87,13.87,0,0,1,11.53,5.59q4.42,5.64,4.46,14.33,0,10.2-5,15.9t-13.61,5.77a22.87,22.87,0,0,1-3.41-.16A12.08,12.08,0,0,0,573.29,380.1Z" transform="translate(0 -3.13)" stroke="#000" stroke-miterlimit="10" stroke-width="5"/></svg>